<?xml version="1.0" standalone="no"?>
<!DOCTYPE svg PUBLIC "-//W3C//DTD SVG 20010904//EN"
 "http://www.w3.org/TR/2001/REC-SVG-20010904/DTD/svg10.dtd">
<svg version="1.0" xmlns="http://www.w3.org/2000/svg"
 width="128.000000pt" height="128.000000pt" viewBox="0 0 128.000000 128.000000"
 preserveAspectRatio="xMidYMid meet">
<metadata>
Created by potrace 1.11, written by Peter Selinger 2001-2013
</metadata>
<g transform="translate(0.000000,128.000000) scale(0.100000,-0.100000)"
fill="#000000" stroke="none">
<path d="M96 1005 c-47 -75 -86 -141 -86 -148 0 -11 32 -48 137 -162 29 -31
157 -176 204 -230 14 -16 50 -57 80 -90 29 -33 63 -71 74 -84 26 -30 51 -58
98 -109 l37 -41 43 47 c23 26 44 49 47 52 3 3 39 43 80 90 41 47 80 90 85 96
6 6 35 39 65 74 30 35 66 75 80 90 23 25 120 134 163 184 10 12 31 35 46 52
l28 31 -90 141 -90 142 -457 0 -457 0 -87 -135z m463 85 c0 -3 -41 -40 -90
-83 l-88 -78 -50 77 c-27 43 -48 81 -46 84 4 7 275 7 274 0z m436 -2 c4 -3
-15 -39 -41 -80 -27 -40 -49 -75 -51 -77 -1 -2 -21 15 -45 37 -24 22 -65 60
-91 84 l-48 43 135 0 c74 0 137 -3 141 -7z m-718 -95 c34 -54 60 -99 59 -101
-3 -2 -218 -6 -243 -3 -11 1 105 199 117 201 3 0 33 -44 67 -97z m395 75 c13
-13 61 -56 106 -97 45 -41 82 -77 82 -80 0 -3 -99 -6 -220 -6 -121 0 -220 3
-220 6 0 3 10 14 23 26 12 11 60 54 107 96 47 42 88 77 91 77 3 0 17 -10 31
-22z m472 -90 c44 -69 52 -88 38 -89 -123 -3 -205 -3 -221 1 -18 5 -15 14 42
102 48 75 64 95 73 85 7 -6 37 -51 68 -99z m-682 -403 c59 -143 107 -266 108
-273 0 -7 -14 4 -32 25 -18 21 -55 63 -83 93 -27 30 -81 91 -120 135 -38 43
-79 88 -90 100 -50 52 -155 174 -155 179 0 4 60 5 132 4 l133 -3 107 -260z
m395 233 c-8 -18 -58 -142 -112 -275 -54 -134 -102 -243 -105 -243 -3 0 -51
109 -105 243 -54 133 -104 257 -112 275 l-13 32 230 0 230 0 -13 -32z m316 1
c-16 -17 -37 -41 -48 -53 -64 -71 -173 -192 -188 -210 -35 -40 -152 -170 -195
-215 l-42 -46 21 50 c11 28 59 144 106 260 47 116 89 218 94 228 9 15 26 17
144 17 l135 0 -27 -31z"/>
</g>
</svg>
